# MagicaVoxel @ Ephtracy

# group
o 

# material
mtllib arrow.mtl
usemtl palette

# normals
vn -1 0 0
vn 1 0 0
vn 0 0 1
vn 0 0 -1
vn 0 -1 0
vn 0 1 0

# texcoords
vt 0.537109 0.5
vt 0.958984 0.5
vt 0.970703 0.5

# verts
v -0.2 0.1 1.2
v -0.2 0.1 0.8
v -0.2 0.1 -0.9
v -0.2 0.1 -1.4
v -0.2 0.2 1.2
v -0.2 0.2 0.8
v -0.2 0.2 -0.9
v -0.2 0.2 -1.4
v -0.1 0 1.1
v -0.1 0 0.8
v -0.1 0.1 1.4
v -0.1 0.1 1.2
v -0.1 0.1 1.1
v -0.1 0.1 0.8
v -0.1 0.1 -0.9
v -0.1 0.2 1.4
v -0.1 0.2 1.2
v -0.1 0.2 1.1
v -0.1 0.2 0.8
v -0.1 0.2 -0.9
v -0.1 0.3 1.1
v -0.1 0.3 0.8
v 0 0 -1
v 0 0 -1.4
v 0 0.1 -1
v 0 0.1 -1.3
v 0 0.1 -1.4
v 0 0.2 -1
v 0 0.2 -1.3
v 0 0.2 -1.4
v 0 0.3 -1
v 0 0.3 -1.4
v -0.1 0.1 -1.3
v -0.1 0.1 -1.4
v -0.1 0.2 -1.3
v -0.1 0.2 -1.4
v 0 0 1.1
v 0 0 0.8
v 0 0.1 1.4
v 0 0.1 1.2
v 0 0.1 1.1
v 0 0.1 0.8
v 0 0.1 -1
v 0 0.1 -1.3
v 0 0.2 1.4
v 0 0.2 1.2
v 0 0.2 1.1
v 0 0.2 0.8
v 0 0.2 -1
v 0 0.2 -1.3
v 0 0.3 1.1
v 0 0.3 0.8
v 0.1 0 -1
v 0.1 0 -1.4
v 0.1 0.1 1.2
v 0.1 0.1 0.8
v 0.1 0.1 -1
v 0.1 0.1 -1.4
v 0.1 0.2 1.2
v 0.1 0.2 0.8
v 0.1 0.2 -1
v 0.1 0.2 -1.4
v 0.1 0.3 -1
v 0.1 0.3 -1.4
v -0.1 0.1 1.4
v -0.1 0.2 1.4
v 0 0.1 1.4
v 0 0.2 1.4
v -0.2 0.1 1.2
v -0.2 0.2 1.2
v -0.1 0.1 1.2
v -0.1 0.2 1.2
v 0 0.1 1.2
v 0 0.2 1.2
v 0.1 0.1 1.2
v 0.1 0.2 1.2
v -0.1 0 1.1
v -0.1 0.1 1.1
v -0.1 0.2 1.1
v -0.1 0.3 1.1
v 0 0 1.1
v 0 0.1 1.1
v 0 0.2 1.1
v 0 0.3 1.1
v -0.2 0.1 -0.9
v -0.2 0.2 -0.9
v -0.1 0.1 -0.9
v -0.1 0.2 -0.9
v 0 0 -1
v 0 0.1 -1
v 0 0.2 -1
v 0 0.3 -1
v 0.1 0 -1
v 0.1 0.1 -1
v 0.1 0.2 -1
v 0.1 0.3 -1
v -0.2 0.1 0.8
v -0.2 0.2 0.8
v -0.1 0 0.8
v -0.1 0.1 0.8
v -0.1 0.2 0.8
v -0.1 0.3 0.8
v 0 0 0.8
v 0 0.1 0.8
v 0 0.2 0.8
v 0 0.3 0.8
v 0.1 0.1 0.8
v 0.1 0.2 0.8
v -0.1 0.1 -1.3
v -0.1 0.2 -1.3
v 0 0.1 -1.3
v 0 0.2 -1.3
v -0.2 0.1 -1.4
v -0.2 0.2 -1.4
v -0.1 0.1 -1.4
v -0.1 0.2 -1.4
v 0 0 -1.4
v 0 0.1 -1.4
v 0 0.2 -1.4
v 0 0.3 -1.4
v 0.1 0 -1.4
v 0.1 0.1 -1.4
v 0.1 0.2 -1.4
v 0.1 0.3 -1.4
v -0.1 0 1.1
v 0 0 1.1
v -0.1 0 0.8
v 0 0 0.8
v 0 0 -1
v 0.1 0 -1
v 0 0 -1.4
v 0.1 0 -1.4
v -0.1 0.1 1.4
v 0 0.1 1.4
v -0.2 0.1 1.2
v -0.1 0.1 1.2
v 0 0.1 1.2
v 0.1 0.1 1.2
v -0.1 0.1 1.1
v 0 0.1 1.1
v -0.2 0.1 0.8
v -0.1 0.1 0.8
v 0 0.1 0.8
v 0.1 0.1 0.8
v -0.2 0.1 -0.9
v -0.1 0.1 -0.9
v 0 0.1 -1
v -0.1 0.1 -1.3
v 0 0.1 -1.3
v -0.2 0.1 -1.4
v -0.1 0.1 -1.4
v 0 0.2 -1
v 0.1 0.2 -1
v 0 0.2 -1.3
v 0 0.2 -1.4
v 0.1 0.2 -1.4
v 0 0.1 -1
v 0.1 0.1 -1
v 0 0.1 -1.3
v 0 0.1 -1.4
v 0.1 0.1 -1.4
v -0.1 0.2 1.4
v 0 0.2 1.4
v -0.2 0.2 1.2
v -0.1 0.2 1.2
v 0 0.2 1.2
v 0.1 0.2 1.2
v -0.1 0.2 1.1
v 0 0.2 1.1
v -0.2 0.2 0.8
v -0.1 0.2 0.8
v 0 0.2 0.8
v 0.1 0.2 0.8
v -0.2 0.2 -0.9
v -0.1 0.2 -0.9
v 0 0.2 -1
v -0.1 0.2 -1.3
v 0 0.2 -1.3
v -0.2 0.2 -1.4
v -0.1 0.2 -1.4
v -0.1 0.3 1.1
v 0 0.3 1.1
v -0.1 0.3 0.8
v 0 0.3 0.8
v 0 0.3 -1
v 0.1 0.3 -1
v 0 0.3 -1.4
v 0.1 0.3 -1.4

# faces
f 5/3/1 2/3/1 1/3/1
f 6/3/1 2/3/1 5/3/1
f 7/2/1 4/2/1 3/2/1
f 8/2/1 4/2/1 7/2/1
f 13/3/1 10/3/1 9/3/1
f 14/3/1 10/3/1 13/3/1
f 16/3/1 12/3/1 11/3/1
f 17/3/1 12/3/1 16/3/1
f 19/1/1 15/1/1 14/1/1
f 20/1/1 15/1/1 19/1/1
f 21/3/1 19/3/1 18/3/1
f 22/3/1 19/3/1 21/3/1
f 25/2/1 24/2/1 23/2/1
f 26/2/1 24/2/1 25/2/1
f 27/2/1 24/2/1 26/2/1
f 31/2/1 29/2/1 28/2/1
f 31/2/1 30/2/1 29/2/1
f 32/2/1 30/2/1 31/2/1
f 33/2/2 34/2/2 35/2/2
f 35/2/2 34/2/2 36/2/2
f 37/3/2 38/3/2 41/3/2
f 41/3/2 38/3/2 42/3/2
f 39/3/2 40/3/2 45/3/2
f 45/3/2 40/3/2 46/3/2
f 43/1/2 44/1/2 48/1/2
f 42/1/2 43/1/2 48/1/2
f 48/1/2 44/1/2 49/1/2
f 49/1/2 44/1/2 50/1/2
f 47/3/2 48/3/2 51/3/2
f 51/3/2 48/3/2 52/3/2
f 53/2/2 54/2/2 57/2/2
f 57/2/2 54/2/2 58/2/2
f 55/3/2 56/3/2 59/3/2
f 59/3/2 56/3/2 60/3/2
f 61/2/2 62/2/2 63/2/2
f 63/2/2 62/2/2 64/2/2
f 67/3/3 66/3/3 65/3/3
f 68/3/3 66/3/3 67/3/3
f 71/3/3 70/3/3 69/3/3
f 72/3/3 70/3/3 71/3/3
f 75/3/3 74/3/3 73/3/3
f 76/3/3 74/3/3 75/3/3
f 81/3/3 78/3/3 77/3/3
f 82/3/3 78/3/3 81/3/3
f 83/3/3 80/3/3 79/3/3
f 84/3/3 80/3/3 83/3/3
f 87/2/3 86/2/3 85/2/3
f 88/2/3 86/2/3 87/2/3
f 93/2/3 90/2/3 89/2/3
f 94/2/3 90/2/3 93/2/3
f 95/2/3 92/2/3 91/2/3
f 96/2/3 92/2/3 95/2/3
f 97/3/4 98/3/4 100/3/4
f 100/3/4 98/3/4 101/3/4
f 99/3/4 100/3/4 103/3/4
f 103/3/4 100/3/4 104/3/4
f 101/3/4 102/3/4 105/3/4
f 105/3/4 102/3/4 106/3/4
f 104/3/4 105/3/4 107/3/4
f 107/3/4 105/3/4 108/3/4
f 109/1/4 110/1/4 111/1/4
f 111/1/4 110/1/4 112/1/4
f 113/2/4 114/2/4 115/2/4
f 115/2/4 114/2/4 116/2/4
f 117/2/4 118/2/4 121/2/4
f 121/2/4 118/2/4 122/2/4
f 119/2/4 120/2/4 123/2/4
f 123/2/4 120/2/4 124/2/4
f 127/3/5 126/3/5 125/3/5
f 128/3/5 126/3/5 127/3/5
f 131/2/5 130/2/5 129/2/5
f 132/2/5 130/2/5 131/2/5
f 136/3/5 134/3/5 133/3/5
f 137/3/5 134/3/5 136/3/5
f 139/3/5 136/3/5 135/3/5
f 139/3/5 138/3/5 137/3/5
f 139/3/5 137/3/5 136/3/5
f 140/3/5 138/3/5 139/3/5
f 141/3/5 139/3/5 135/3/5
f 142/3/5 139/3/5 141/3/5
f 143/3/5 138/3/5 140/3/5
f 144/3/5 138/3/5 143/3/5
f 146/1/5 143/1/5 142/1/5
f 147/1/5 143/1/5 146/1/5
f 148/2/5 146/2/5 145/2/5
f 148/1/5 147/1/5 146/1/5
f 149/1/5 147/1/5 148/1/5
f 150/2/5 148/2/5 145/2/5
f 151/2/5 148/2/5 150/2/5
f 154/2/5 153/2/5 152/2/5
f 155/2/5 153/2/5 154/2/5
f 156/2/5 153/2/5 155/2/5
f 157/2/6 158/2/6 159/2/6
f 159/2/6 158/2/6 160/2/6
f 160/2/6 158/2/6 161/2/6
f 162/3/6 163/3/6 165/3/6
f 165/3/6 163/3/6 166/3/6
f 164/3/6 165/3/6 168/3/6
f 166/3/6 167/3/6 168/3/6
f 165/3/6 166/3/6 168/3/6
f 168/3/6 167/3/6 169/3/6
f 164/3/6 168/3/6 170/3/6
f 170/3/6 168/3/6 171/3/6
f 169/3/6 167/3/6 172/3/6
f 172/3/6 167/3/6 173/3/6
f 171/1/6 172/1/6 175/1/6
f 175/1/6 172/1/6 176/1/6
f 174/2/6 175/2/6 177/2/6
f 175/1/6 176/1/6 177/1/6
f 177/1/6 176/1/6 178/1/6
f 174/2/6 177/2/6 179/2/6
f 179/2/6 177/2/6 180/2/6
f 181/3/6 182/3/6 183/3/6
f 183/3/6 182/3/6 184/3/6
f 185/2/6 186/2/6 187/2/6
f 187/2/6 186/2/6 188/2/6
